<svg xmlns="http://www.w3.org/2000/svg" viewBox="0 0 406 680"><path d="M402.1 214.1c0 90.5-55.3 167.4-132.4 195.9-20.7 7.6-42.9 35.5-66.1 35.5-22 0-43.2-27.4-62.9-34.3-78.9-27.6-135.6-105.4-135.6-197.1 0-114.7 88.8-207.7 198.5-207.7 109.6 0 198.5 93 198.5 207.7zM188.1 486.3c-1.9 0-3.8-1-4.8-2.8-1.5-2.7-.5-6 2.2-7.5l33.3-18.4c2.7-1.5 6-.5 7.5 2.2s.5 6-2.2 7.5l-33.3 18.4c-.9.4-1.8.6-2.7.6zM224.1 676.9c-1.8 0-3.5-.8-4.5-2.4-18.7-27.3-27.6-48-28.2-65-.5-15.9 6.3-26.6 12.9-37 6.7-10.5 12.9-20.3 13.3-36.5.3-14.8-2.8-24.7-8.9-28.7-7.9-5.1-19.6.3-19.8.4-2.7 1.3-5.8.2-7.2-2.4-1.4-2.6-.5-5.8 2-7.3l37.6-22.5c2.6-1.6 6-.7 7.5 1.9 1.6 2.6.7 6-1.9 7.5l-17.6 10.5c1.8.6 3.5 1.4 5.3 2.5 9.7 6.2 14.4 19 14 38.2-.4 19.2-8.2 31.4-15 42.2-6.2 9.7-11.6 18.2-11.2 30.7.5 14.7 9.1 34 26.3 59.2 1.7 2.5 1.1 5.9-1.4 7.6-1.1.8-2.2 1.1-3.2 1.1zM312.1 89.4c17.2 9.7 34.4 26.9 34.4 50.1"/><path fill="#fff" d="M346.4 145.1c-3 0-5.5-2.5-5.5-5.5 0-24.8-22.1-40-31.6-45.4-2.6-1.5-3.6-4.9-2.1-7.5 1.5-2.6 4.9-3.6 7.5-2.1 33.5 19 37.1 44.7 37.1 54.9.1 3.1-2.3 5.6-5.4 5.6z"/></svg>